<?xml version="1.0" standalone="no"?>
<!DOCTYPE svg PUBLIC "-//W3C//DTD SVG 20010904//EN"
 "http://www.w3.org/TR/2001/REC-SVG-20010904/DTD/svg10.dtd">
<svg version="1.0" xmlns="http://www.w3.org/2000/svg"
 width="290.000000pt" height="165.000000pt" viewBox="0 0 290.000000 165.000000"
 preserveAspectRatio="xMidYMid meet">
<metadata>
Created by potrace 1.16, written by Peter Selinger 2001-2019
</metadata>
<g transform="translate(0.000000,165.000000) scale(0.100000,-0.100000)"
fill="#000000" stroke="none">
<path d="M615 1446 c-36 -16 -82 -68 -91 -100 -3 -12 -4 -116 -2 -232 3 -202
4 -211 26 -239 71 -90 196 -86 266 8 20 27 21 41 21 252 0 210 -1 225 -21 251
-11 15 -32 37 -46 47 -33 25 -113 32 -153 13z"/>
<path d="M2470 1209 l0 -210 33 3 c32 3 32 3 37 67 l5 65 44 -60 c24 -32 46
-61 47 -63 6 -7 84 -13 84 -6 0 4 -22 37 -48 74 -27 36 -51 71 -55 77 -3 6 16
40 43 75 l50 64 -38 3 c-32 3 -40 -1 -62 -29 -14 -18 -35 -44 -47 -58 l-22
-26 -1 118 0 117 -35 0 -35 0 0 -211z"/>
<path d="M1283 1385 c-45 -19 -70 -72 -57 -121 11 -46 44 -71 119 -90 33 -9
66 -20 73 -26 15 -13 16 -50 0 -66 -27 -27 -138 -5 -151 30 -3 9 -13 5 -33
-14 -24 -24 -26 -29 -13 -44 40 -49 160 -69 224 -38 43 20 69 73 61 123 -8 51
-51 86 -123 101 -68 14 -83 24 -83 55 0 43 91 54 133 16 17 -14 20 -14 38 9
24 32 21 41 -22 62 -41 21 -121 23 -166 3z"/>
<path d="M1688 1291 c-30 -15 -38 -16 -38 -5 0 10 -12 14 -40 14 l-40 0 0
-204 0 -204 36 -4 c44 -5 47 1 42 82 -1 33 -1 60 2 60 3 0 14 -7 24 -15 46
-34 133 -8 163 48 23 44 22 143 -1 183 -34 57 -91 75 -148 45z m72 -66 c7 -9
15 -38 18 -65 4 -42 1 -52 -21 -74 -31 -31 -60 -33 -87 -6 -29 29 -31 111 -3
143 20 21 76 22 93 2z"/>
<path d="M1990 1299 c-19 -6 -45 -18 -58 -28 -23 -17 -23 -18 -5 -39 l18 -22
43 21 c35 18 48 20 68 11 13 -7 24 -16 24 -22 0 -15 -41 -37 -81 -44 -60 -11
-89 -40 -89 -91 0 -35 5 -48 26 -64 34 -27 84 -27 119 1 24 19 28 19 36 6 18
-32 99 -34 99 -2 0 8 -9 22 -20 31 -17 15 -20 30 -20 96 0 83 -16 132 -47 141
-44 12 -81 13 -113 5z"/>
<path d="M2240 1152 l0 -149 33 1 32 1 5 96 c6 108 16 129 65 129 32 0 44 16
45 58 0 21 -67 14 -90 -10 l-20 -22 0 22 c0 18 -6 22 -35 22 l-35 0 0 -148z"/>
<path d="M304 923 c18 -140 151 -282 287 -310 l29 -5 0 -89 0 -89 55 0 54 0 3
87 3 87 41 12 c137 40 234 137 269 269 22 84 21 85 -29 85 -45 0 -56 -10 -56
-51 0 -33 -47 -114 -86 -149 -170 -149 -445 -57 -480 159 -7 41 -7 41 -52 41
l-45 0 7 -47z"/>
<path d="M1220 632 c0 -4 28 -93 63 -197 l64 -190 45 -3 46 -3 15 43 c63 182
117 342 117 350 0 5 -17 8 -37 6 l-38 -3 -45 -137 c-25 -75 -48 -139 -52 -143
-3 -4 -28 59 -54 139 l-48 146 -38 0 c-21 0 -38 -3 -38 -8z"/>
<path d="M1711 540 c-18 -4 -48 -22 -64 -39 -28 -27 -32 -38 -35 -98 -2 -55 1
-74 18 -101 52 -83 191 -81 246 3 23 35 24 130 1 172 -28 52 -99 79 -166 63z
m93 -82 c25 -36 21 -104 -9 -133 -28 -29 -51 -31 -82 -10 -38 27 -42 115 -6
150 23 23 79 19 97 -7z"/>
<path d="M2212 540 c-64 -15 -102 -70 -102 -147 0 -90 59 -153 143 -153 82 0
151 71 97 100 -17 9 -26 7 -51 -14 -17 -14 -37 -26 -45 -26 -65 0 -95 107 -46
163 22 25 77 22 96 -5 15 -21 16 -21 38 -2 13 10 24 19 26 20 1 1 0 9 -4 18
-13 35 -95 60 -152 46z"/>
<path d="M2505 535 c-51 -18 -83 -58 -91 -113 -9 -57 8 -111 46 -147 54 -52
179 -44 210 15 9 16 6 22 -16 37 -24 15 -27 15 -35 1 -13 -23 -63 -32 -91 -17
-28 14 -38 28 -38 52 0 15 11 17 95 17 l95 0 0 40 c0 97 -80 149 -175 115z"/>
<path d="M1964 526 c-3 -8 -4 -74 -2 -147 l3 -134 35 0 35 0 3 148 3 147 -36
0 c-21 0 -38 -6 -41 -14z"/>
</g>
</svg>
